<?xml version="1.0" encoding="UTF-8"?>
<!DOCTYPE svg PUBLIC "-//W3C//DTD SVG 1.1//EN" "http://www.w3.org/Graphics/SVG/1.1/DTD/svg11.dtd">
<!-- Creator: CorelDRAW -->
<svg xmlns="http://www.w3.org/2000/svg" xml:space="preserve" width="1.99999in" height="1.99999in" version="1.1" style="shape-rendering:geometricPrecision; text-rendering:geometricPrecision; image-rendering:optimizeQuality; fill-rule:evenodd; clip-rule:evenodd"
viewBox="0 0 2000 2000"
 xmlns:xlink="http://www.w3.org/1999/xlink">
 <defs>
  <style type="text/css">
   <![CDATA[
    .fil0 {fill:none}
    .fil1 {fill:black}
   ]]>
  </style>
 </defs>
 <rect class="fil0" width="2000" height="2000"/>
 <g id="Layer_x0020_1">
  <metadata id="CorelCorpID_0Corel-Layer"/>
  <path class="fil1" d="M614 1062c-60,0 -108,-48 -108,-108 0,-60 48,-108 108,-108 60,0 108,48 108,108 0,60 -48,108 -108,108zm1120 470l-1467 0c-24,0 -42,-19 -40,-47l0 -930c-17,12 -26,23 -41,23 -39,0 -52,-51 -23,-72l80 -60c17,-12 41,-9 54,6l75 54c32,22 14,72 -23,72 -18,0 -28,-10 -42,-20l0 136 93 0c53,0 53,81 2,81l-95 0 0 172 93 0c53,0 53,81 2,81l-95 0 0 172 93 0c53,0 53,81 2,81l-95 0 0 129 1282 -999c43,-33 90,33 49,63l-1257 979 1354 0 -14 -20c-13,-18 -8,-43 8,-55 18,-13 43,-9 56,8l57 79c16,19 14,39 -3,57l-54 75c-29,40 -97,-3 -64,-47l13 -18zm-510 -928c-60,0 -109,-48 -109,-108 0,-60 49,-108 109,-108 59,0 108,48 108,108 -1,60 -50,108 -108,108zm0 -136c-37,0 -37,56 0,56 36,0 36,-56 0,-56zm229 488c-60,0 -108,-49 -108,-109 0,-59 48,-108 108,-108 60,0 108,49 108,108 0,60 -50,109 -108,109zm0 -137c-37,0 -37,56 0,56 36,0 36,-56 0,-56zm-407 432c-60,0 -108,-48 -108,-108 0,-60 48,-108 108,-108 60,0 108,48 108,108 0,60 -48,108 -108,108zm0 -134c-37,0 -37,55 0,55 37,0 37,-55 0,-55zm-174 -378c-59,0 -108,-49 -108,-108 0,-60 49,-109 108,-109 60,0 109,49 109,109 0,59 -50,108 -109,108zm0 -135c-36,0 -36,56 0,56 37,0 37,-56 0,-56zm-258 322c-36,0 -36,56 0,56 37,0 37,-56 0,-56z"/>
 </g>
</svg>
